<?xml version="1.0" encoding="utf-8"?>
<!-- Generator: Adobe Illustrator 16.0.0, SVG Export Plug-In . SVG Version: 6.00 Build 0)  -->
<!DOCTYPE svg PUBLIC "-//W3C//DTD SVG 1.1//EN" "http://www.w3.org/Graphics/SVG/1.1/DTD/svg11.dtd">
<svg version="1.1" xmlns="http://www.w3.org/2000/svg" xmlns:xlink="http://www.w3.org/1999/xlink" x="0px" y="0px"
	 width="137.901px" height="82.219px" viewBox="0 0 137.901 82.219" enable-background="new 0 0 137.901 82.219"
	 xml:space="preserve">
<g>
	<path fill="#FFFFFF" d="M9.145,35.209c0.04,1.551,0.297,2.067,0.695,2.207c0.337,0.118,0.714,0.138,1.032,0.138
		c0.219,0,0.338,0.04,0.338,0.159c0,0.159-0.179,0.199-0.457,0.199c-1.291,0-2.086-0.06-2.464-0.06c-0.178,0-1.113,0.06-2.145,0.06
		c-0.259,0-0.438-0.021-0.438-0.199c0-0.12,0.119-0.159,0.319-0.159c0.257,0,0.616-0.02,0.894-0.099
		c0.516-0.16,0.595-0.735,0.616-2.464l0.178-11.764c0-0.397,0.06-0.675,0.259-0.675c0.219,0,0.397,0.258,0.735,0.616
		c0.238,0.258,3.26,3.497,6.161,6.378c1.352,1.351,4.033,4.213,4.371,4.53h0.1l-0.199-8.922c-0.018-1.211-0.198-1.589-0.675-1.788
		c-0.299-0.119-0.775-0.119-1.053-0.119c-0.238,0-0.318-0.06-0.318-0.179c0-0.16,0.218-0.179,0.517-0.179
		c1.033,0,1.986,0.06,2.404,0.06c0.219,0,0.973-0.06,1.947-0.06c0.259,0,0.458,0.02,0.458,0.179c0,0.119-0.121,0.179-0.359,0.179
		c-0.198,0-0.357,0-0.595,0.06c-0.558,0.159-0.717,0.576-0.735,1.688l-0.22,12.539c0,0.438-0.079,0.616-0.259,0.616
		c-0.217,0-0.457-0.218-0.675-0.437c-1.252-1.192-3.795-3.795-5.862-5.842c-2.166-2.146-4.371-4.63-4.729-5.008H8.926L9.145,35.209z
		"/>
	<path fill="#FFFFFF" d="M27.448,28.652c0-3.021,0-3.577-0.04-4.212c-0.039-0.676-0.198-0.994-0.854-1.133
		c-0.159-0.04-0.497-0.06-0.775-0.06c-0.219,0-0.338-0.04-0.338-0.179c0-0.14,0.14-0.179,0.438-0.179c1.053,0,2.305,0.06,2.861,0.06
		c0.636,0,4.591,0,4.969-0.02c0.376-0.04,0.695-0.08,0.854-0.119c0.099-0.02,0.218-0.08,0.318-0.08c0.1,0,0.119,0.08,0.119,0.179
		c0,0.14-0.099,0.378-0.159,1.292c-0.02,0.199-0.061,1.073-0.1,1.312c-0.02,0.099-0.06,0.218-0.199,0.218
		c-0.138,0-0.178-0.1-0.178-0.278c0-0.139-0.021-0.477-0.12-0.715c-0.139-0.357-0.337-0.596-1.331-0.715
		c-0.338-0.04-2.425-0.08-2.821-0.08c-0.1,0-0.14,0.06-0.14,0.199v5.027c0,0.139,0.021,0.218,0.14,0.218c0.437,0,2.723,0,3.179-0.04
		c0.478-0.04,0.776-0.099,0.954-0.298c0.14-0.159,0.219-0.259,0.317-0.259c0.08,0,0.14,0.04,0.14,0.159
		c0,0.12-0.1,0.437-0.158,1.451c-0.04,0.397-0.08,1.192-0.08,1.331c0,0.159,0,0.377-0.179,0.377c-0.14,0-0.18-0.08-0.18-0.179
		c-0.02-0.199-0.02-0.458-0.079-0.715c-0.099-0.398-0.378-0.696-1.113-0.775c-0.376-0.04-2.344-0.06-2.821-0.06
		c-0.099,0-0.119,0.079-0.119,0.198v1.57c0,0.676-0.02,2.504,0,3.08c0.04,1.371,0.358,1.669,2.385,1.669
		c0.518,0,1.352,0,1.868-0.238c0.517-0.239,0.755-0.656,0.895-1.471c0.04-0.218,0.079-0.298,0.219-0.298
		c0.157,0,0.157,0.159,0.157,0.357c0,0.457-0.157,1.808-0.257,2.206c-0.14,0.517-0.317,0.517-1.073,0.517
		c-3.001,0-4.332-0.12-5.505-0.12c-0.457,0-1.709,0.06-2.504,0.06c-0.258,0-0.397-0.06-0.397-0.199c0-0.099,0.08-0.159,0.318-0.159
		c0.298,0,0.536-0.039,0.716-0.079c0.396-0.08,0.497-0.517,0.576-1.093c0.099-0.834,0.099-2.405,0.099-4.233V28.652z"/>
	<path fill="#FFFFFF" d="M38.837,24.837c-0.239-0.735-0.457-1.211-0.736-1.411c-0.218-0.139-0.615-0.179-0.794-0.179
		c-0.199,0-0.318-0.02-0.318-0.179c0-0.14,0.159-0.179,0.438-0.179c1.033,0,2.126,0.06,2.305,0.06s1.053-0.06,2.206-0.06
		c0.277,0,0.417,0.06,0.417,0.179c0,0.159-0.158,0.179-0.357,0.179c-0.158,0-0.358,0-0.496,0.079c-0.18,0.08-0.22,0.219-0.22,0.438
		c0,0.258,0.198,0.934,0.438,1.829c0.337,1.311,2.185,7.332,2.543,8.444h0.06l3.854-10.352c0.22-0.557,0.339-0.716,0.497-0.716
		c0.218,0,0.317,0.299,0.576,0.934l4.132,9.996h0.062c0.357-1.332,1.947-6.578,2.643-8.903c0.138-0.457,0.198-0.874,0.198-1.153
		c0-0.317-0.178-0.595-0.953-0.595c-0.199,0-0.338-0.06-0.338-0.179c0-0.14,0.159-0.179,0.457-0.179c1.053,0,1.887,0.06,2.066,0.06
		c0.14,0,0.993-0.06,1.649-0.06c0.218,0,0.357,0.04,0.357,0.159c0,0.139-0.101,0.199-0.278,0.199c-0.198,0-0.478,0.02-0.695,0.099
		c-0.478,0.179-0.695,0.974-1.113,2.106c-0.913,2.504-3,8.823-3.974,11.804c-0.219,0.696-0.317,0.933-0.576,0.933
		c-0.2,0-0.318-0.237-0.616-0.973l-4.133-9.956h-0.04c-0.378,1.013-3.02,8.048-3.874,9.876c-0.38,0.815-0.478,1.053-0.716,1.053
		c-0.199,0-0.299-0.218-0.458-0.734L38.837,24.837z"/>
	<path fill="#FFFFFF" d="M71.552,32.765c0-1.072-0.2-1.51-0.459-2.086c-0.138-0.318-2.801-4.689-3.496-5.723
		c-0.497-0.735-0.994-1.232-1.372-1.451c-0.257-0.139-0.596-0.258-0.834-0.258c-0.16,0-0.298-0.04-0.298-0.179
		c0-0.12,0.138-0.179,0.378-0.179c0.357,0,1.848,0.06,2.504,0.06c0.416,0,1.231-0.06,2.126-0.06c0.198,0,0.297,0.06,0.297,0.179
		c0,0.119-0.139,0.139-0.437,0.218c-0.18,0.04-0.278,0.199-0.278,0.358s0.099,0.397,0.238,0.676c0.279,0.596,3.06,5.385,3.379,5.941
		c0.198-0.477,2.702-4.849,2.98-5.465c0.198-0.437,0.279-0.775,0.279-1.033c0-0.199-0.081-0.417-0.419-0.497
		c-0.178-0.04-0.357-0.08-0.357-0.199c0-0.14,0.1-0.179,0.338-0.179c0.654,0,1.292,0.06,1.867,0.06c0.438,0,1.75-0.06,2.128-0.06
		c0.218,0,0.355,0.04,0.355,0.159c0,0.139-0.158,0.199-0.376,0.199c-0.199,0-0.576,0.079-0.875,0.238
		c-0.416,0.199-0.636,0.437-1.072,0.973c-0.655,0.795-3.438,5.465-3.796,6.319c-0.297,0.715-0.297,1.332-0.297,1.987v1.63
		c0,0.318,0,1.153,0.059,1.987c0.04,0.576,0.219,1.014,0.814,1.093c0.278,0.04,0.716,0.079,0.994,0.079
		c0.218,0,0.317,0.06,0.317,0.159c0,0.139-0.159,0.199-0.417,0.199c-1.252,0-2.504-0.06-3.041-0.06c-0.497,0-1.748,0.06-2.483,0.06
		c-0.277,0-0.437-0.04-0.437-0.199c0-0.099,0.099-0.159,0.317-0.159c0.278,0,0.517-0.039,0.695-0.079
		c0.397-0.08,0.576-0.517,0.616-1.093c0.061-0.834,0.061-1.669,0.061-1.987V32.765z"/>
	<path fill="#FFFFFF" d="M80.277,30.401c0-3.399,2.247-7.79,8.207-7.79c4.947,0,8.028,2.881,8.028,7.431
		c0,4.551-3.179,8.147-8.227,8.147C82.583,38.19,80.277,33.918,80.277,30.401z M93.73,30.778c0-4.451-2.564-7.213-5.822-7.213
		c-2.286,0-4.889,1.272-4.889,6.22c0,4.133,2.285,7.412,6.101,7.412C90.511,37.197,93.73,36.521,93.73,30.778z"/>
	<path fill="#FFFFFF" d="M100.669,28.652c0-3.021,0-3.577-0.04-4.212c-0.04-0.676-0.2-0.994-0.855-1.133
		c-0.159-0.04-0.496-0.06-0.773-0.06c-0.22,0-0.338-0.04-0.338-0.179c0-0.14,0.138-0.179,0.437-0.179c1.053,0,2.305,0.06,2.723,0.06
		c0.675,0,2.185-0.06,2.801-0.06c1.251,0,2.583,0.12,3.656,0.855c0.557,0.377,1.352,1.39,1.352,2.722
		c0,1.47-0.616,2.821-2.623,4.451c1.768,2.225,3.14,3.994,4.312,5.226c1.114,1.152,1.929,1.292,2.226,1.351
		c0.219,0.039,0.398,0.059,0.558,0.059c0.158,0,0.237,0.06,0.237,0.159c0,0.159-0.14,0.199-0.377,0.199h-1.889
		c-1.112,0-1.609-0.1-2.126-0.378c-0.854-0.457-1.609-1.39-2.723-2.921c-0.794-1.092-1.708-2.444-1.967-2.742
		c-0.099-0.119-0.218-0.139-0.357-0.139l-1.729-0.04c-0.1,0-0.158,0.04-0.158,0.159v0.278c0,1.848,0,3.418,0.1,4.253
		c0.059,0.576,0.178,1.014,0.774,1.093c0.299,0.04,0.735,0.079,0.974,0.079c0.159,0,0.238,0.06,0.238,0.159
		c0,0.139-0.14,0.199-0.397,0.199c-1.15,0-2.622-0.06-2.921-0.06c-0.377,0-1.629,0.06-2.423,0.06c-0.259,0-0.398-0.06-0.398-0.199
		c0-0.099,0.08-0.159,0.318-0.159c0.298,0,0.537-0.039,0.715-0.079c0.398-0.08,0.496-0.517,0.576-1.093
		c0.101-0.834,0.101-2.405,0.101-4.233V28.652z M103.013,30.222c0,0.219,0.041,0.298,0.179,0.358
		c0.416,0.139,1.015,0.199,1.51,0.199c0.796,0,1.053-0.08,1.41-0.337c0.598-0.438,1.174-1.351,1.174-2.981
		c0-2.822-1.869-3.636-3.039-3.636c-0.499,0-0.856,0.019-1.055,0.079c-0.138,0.041-0.179,0.12-0.179,0.279V30.222z"/>
	<path fill="#FFFFFF" d="M119.093,29.526h0.099c0.676-0.735,3.577-3.696,4.153-4.372c0.557-0.656,0.993-1.152,0.993-1.489
		c0-0.219-0.079-0.358-0.277-0.397c-0.18-0.04-0.259-0.08-0.259-0.199c0-0.14,0.1-0.179,0.317-0.179c0.418,0,1.512,0.06,2.048,0.06
		c0.615,0,1.709-0.06,2.325-0.06c0.198,0,0.337,0.04,0.337,0.179c0,0.139-0.099,0.179-0.298,0.179c-0.277,0-0.774,0.079-1.152,0.218
		c-0.616,0.239-1.292,0.656-2.146,1.491c-0.616,0.596-3.615,3.577-4.292,4.292c0.716,0.934,4.609,5.127,5.386,5.862
		c0.873,0.834,1.768,1.729,2.841,2.146c0.597,0.238,0.994,0.297,1.231,0.297c0.14,0,0.259,0.04,0.259,0.159
		c0,0.139-0.099,0.199-0.476,0.199h-1.729c-0.597,0-0.954,0-1.372-0.04c-1.073-0.1-1.608-0.536-2.464-1.292
		c-0.875-0.775-4.789-5.365-5.206-5.941l-0.219-0.297h-0.099v1.808c0,1.828,0,3.398,0.059,4.252c0.04,0.557,0.219,0.994,0.716,1.074
		c0.278,0.04,0.716,0.079,0.974,0.079c0.158,0,0.259,0.06,0.259,0.159c0,0.139-0.159,0.199-0.378,0.199
		c-1.113,0-2.364-0.06-2.861-0.06c-0.457,0-1.71,0.06-2.504,0.06c-0.259,0-0.397-0.06-0.397-0.199c0-0.099,0.08-0.159,0.318-0.159
		c0.298,0,0.536-0.039,0.716-0.079c0.396-0.08,0.495-0.517,0.576-1.093c0.099-0.834,0.099-2.405,0.099-4.233v-3.497
		c0-3.021,0-3.577-0.04-4.212c-0.039-0.676-0.198-0.994-0.854-1.133c-0.159-0.04-0.497-0.06-0.775-0.06
		c-0.219,0-0.338-0.04-0.338-0.179c0-0.14,0.138-0.179,0.437-0.179c1.053,0,2.306,0.06,2.783,0.06c0.477,0,1.728-0.06,2.404-0.06
		c0.277,0,0.417,0.04,0.417,0.179c0,0.139-0.119,0.179-0.277,0.179c-0.2,0-0.319,0.02-0.558,0.06
		c-0.536,0.099-0.695,0.438-0.735,1.133c-0.039,0.635-0.039,1.191-0.039,4.212V29.526z"/>
	<rect x="6.459" y="66.904" fill="#FFFFFF" width="124.296" height="15.314"/>
	<path fill="#FFFFFF" d="M9.026,58.75c-2.221-1.949-2.811-4.487-2.811-6.686c0-1.541,0.476-4.215,2.651-6.209
		c1.632-1.496,3.786-2.402,7.162-2.402c1.404,0,2.243,0.09,3.285,0.227c0.861,0.113,1.587,0.317,2.266,0.385
		c0.251,0.023,0.341,0.137,0.341,0.272c0,0.181-0.066,0.453-0.112,1.246c-0.046,0.749-0.022,1.995-0.069,2.447
		c-0.022,0.34-0.067,0.521-0.271,0.521c-0.182,0-0.226-0.181-0.226-0.498c-0.023-0.703-0.317-1.496-0.885-2.085
		c-0.747-0.793-2.515-1.405-4.6-1.405c-1.973,0-3.264,0.499-4.261,1.405c-1.654,1.518-2.085,3.671-2.085,5.869
		c0,5.394,4.103,8.068,7.139,8.068c2.017,0,3.24-0.227,4.146-1.269c0.386-0.431,0.681-1.088,0.771-1.496
		c0.068-0.363,0.112-0.454,0.295-0.454c0.158,0,0.204,0.159,0.204,0.34c0,0.272-0.271,2.244-0.499,3.015
		c-0.113,0.384-0.204,0.498-0.588,0.656c-0.906,0.363-2.63,0.521-4.08,0.521C13.694,61.22,11.087,60.54,9.026,58.75z"/>
	<path fill="#FFFFFF" d="M27.717,50.342c0-3.444,0-4.079-0.044-4.804c-0.047-0.771-0.273-1.156-0.771-1.269
		c-0.249-0.068-0.545-0.091-0.817-0.091c-0.227,0-0.361-0.045-0.361-0.227c0-0.136,0.181-0.181,0.543-0.181
		c0.861,0,2.289,0.068,2.946,0.068c0.566,0,1.903-0.068,2.764-0.068c0.296,0,0.477,0.045,0.477,0.181
		c0,0.182-0.136,0.227-0.362,0.227s-0.407,0.023-0.68,0.069c-0.611,0.113-0.794,0.498-0.839,1.292
		c-0.045,0.725-0.045,1.359-0.045,4.804v3.989c0,2.198,0,3.988,0.09,4.963c0.068,0.612,0.228,1.02,0.908,1.111
		c0.316,0.045,0.814,0.09,1.153,0.09c0.251,0,0.364,0.067,0.364,0.181c0,0.159-0.182,0.226-0.431,0.226
		c-1.496,0-2.923-0.067-3.535-0.067c-0.521,0-1.949,0.067-2.855,0.067c-0.294,0-0.453-0.067-0.453-0.226
		c0-0.114,0.09-0.181,0.361-0.181c0.341,0,0.613-0.045,0.816-0.09c0.453-0.091,0.59-0.477,0.658-1.134
		c0.112-0.952,0.112-2.742,0.112-4.94V50.342z"/>
	<path fill="#FFFFFF" d="M41.426,45.039l-3.378,0.091c-1.313,0.045-1.857,0.158-2.196,0.657c-0.228,0.34-0.34,0.612-0.387,0.793
		c-0.045,0.182-0.113,0.272-0.249,0.272c-0.159,0-0.204-0.113-0.204-0.363c0-0.362,0.432-2.425,0.477-2.605
		c0.068-0.295,0.136-0.431,0.271-0.431c0.182,0,0.409,0.227,0.976,0.271c0.656,0.068,1.517,0.114,2.266,0.114h8.974
		c1.45,0,1.995-0.227,2.176-0.227c0.158,0,0.182,0.136,0.182,0.476c0,0.476-0.068,2.04-0.068,2.628
		c-0.023,0.227-0.067,0.363-0.204,0.363c-0.182,0-0.227-0.113-0.249-0.453l-0.023-0.249c-0.045-0.589-0.657-1.224-2.674-1.269
		l-2.855-0.068v9.292c0,2.085,0,3.875,0.114,4.85c0.068,0.635,0.203,1.133,0.884,1.224c0.316,0.045,0.814,0.09,1.155,0.09
		c0.249,0,0.361,0.067,0.361,0.181c0,0.159-0.181,0.226-0.43,0.226c-1.495,0-2.923-0.067-3.558-0.067
		c-0.521,0-1.949,0.067-2.855,0.067c-0.295,0-0.453-0.067-0.453-0.226c0-0.114,0.092-0.181,0.362-0.181
		c0.341,0,0.612-0.045,0.816-0.09c0.453-0.091,0.59-0.589,0.656-1.248c0.114-0.951,0.114-2.742,0.114-4.827V45.039z"/>
	<path fill="#FFFFFF" d="M58.852,55.033c0-1.224-0.228-1.723-0.521-2.379c-0.158-0.362-3.196-5.349-3.989-6.526
		c-0.566-0.839-1.134-1.405-1.564-1.654c-0.294-0.159-0.679-0.295-0.95-0.295c-0.182,0-0.341-0.045-0.341-0.204
		c0-0.136,0.159-0.204,0.43-0.204c0.409,0,2.108,0.068,2.855,0.068c0.477,0,1.405-0.068,2.425-0.068
		c0.228,0,0.341,0.068,0.341,0.204c0,0.136-0.158,0.159-0.5,0.249c-0.202,0.046-0.315,0.227-0.315,0.409
		c0,0.181,0.113,0.452,0.272,0.77c0.317,0.68,3.489,6.141,3.852,6.776c0.227-0.543,3.083-5.529,3.399-6.232
		c0.228-0.499,0.317-0.883,0.317-1.178c0-0.227-0.09-0.476-0.476-0.566c-0.204-0.046-0.408-0.091-0.408-0.227
		c0-0.159,0.113-0.204,0.385-0.204c0.749,0,1.473,0.068,2.131,0.068c0.499,0,1.993-0.068,2.425-0.068
		c0.249,0,0.408,0.045,0.408,0.181c0,0.159-0.183,0.227-0.432,0.227c-0.227,0-0.657,0.091-0.996,0.272
		c-0.477,0.227-0.726,0.499-1.225,1.111c-0.747,0.906-3.92,6.232-4.327,7.207c-0.341,0.816-0.341,1.518-0.341,2.266v1.858
		c0,0.363,0,1.315,0.067,2.266c0.045,0.658,0.25,1.156,0.93,1.248c0.317,0.045,0.815,0.09,1.133,0.09
		c0.25,0,0.363,0.067,0.363,0.181c0,0.159-0.183,0.226-0.477,0.226c-1.428,0-2.854-0.067-3.466-0.067
		c-0.567,0-1.995,0.067-2.834,0.067c-0.316,0-0.499-0.045-0.499-0.226c0-0.114,0.112-0.181,0.363-0.181
		c0.316,0,0.589-0.045,0.793-0.09c0.453-0.091,0.657-0.589,0.702-1.248c0.068-0.951,0.068-1.903,0.068-2.266V55.033z"/>
	<path fill="#FFFFFF" d="M81.009,50.342c0-3.444,0-4.079-0.046-4.804c-0.045-0.771-0.227-1.134-0.973-1.292
		c-0.183-0.045-0.568-0.069-0.885-0.069c-0.25,0-0.386-0.045-0.386-0.204c0-0.159,0.158-0.204,0.5-0.204
		c1.2,0,2.627,0.068,3.081,0.068c1.109,0,1.993-0.068,2.764-0.068c4.102,0,4.827,2.199,4.827,3.399c0,1.858-1.064,2.969-2.312,3.966
		c1.858,0.634,4.124,2.244,4.124,4.896c0,2.424-1.881,4.94-6.049,4.94c-0.545,0-2.607-0.136-3.287-0.136
		c-0.521,0-1.948,0.067-2.854,0.067c-0.294,0-0.454-0.067-0.454-0.226c0-0.114,0.091-0.181,0.362-0.181
		c0.34,0,0.612-0.045,0.817-0.09c0.452-0.091,0.565-0.589,0.655-1.248c0.114-0.951,0.114-2.742,0.114-4.827V50.342z M83.728,50.728
		c0,0.181,0.068,0.226,0.158,0.249c0.206,0.045,0.544,0.068,1.066,0.068c0.746,0,1.246-0.091,1.631-0.431
		c0.589-0.476,0.93-1.292,0.93-2.402c0-1.519-0.885-3.513-2.833-3.513c-0.317,0-0.521,0-0.747,0.045
		c-0.159,0.045-0.205,0.136-0.205,0.385V50.728z M86.719,52.541c-0.476-0.34-0.997-0.499-1.881-0.544
		c-0.408-0.022-0.634-0.022-0.974-0.022c-0.091,0-0.137,0.046-0.137,0.159v5.371c0,1.496,0.068,1.882,0.794,2.176
		c0.61,0.249,1.134,0.271,1.653,0.271c1.021,0,2.742-0.544,2.742-2.901C88.917,55.646,88.442,53.741,86.719,52.541z"/>
	<path fill="#FFFFFF" d="M99.291,54.987c-0.112,0-0.158,0.046-0.202,0.182l-1.226,3.241c-0.226,0.566-0.339,1.11-0.339,1.382
		c0,0.408,0.203,0.703,0.906,0.703h0.341c0.271,0,0.339,0.045,0.339,0.181c0,0.181-0.137,0.226-0.386,0.226
		c-0.725,0-1.699-0.067-2.401-0.067c-0.25,0-1.496,0.067-2.674,0.067c-0.294,0-0.431-0.045-0.431-0.226
		c0-0.136,0.09-0.181,0.272-0.181c0.204,0,0.52-0.023,0.702-0.045c1.042-0.136,1.472-0.907,1.926-2.04l5.688-14.232
		c0.272-0.657,0.408-0.906,0.634-0.906c0.204,0,0.341,0.204,0.566,0.726c0.544,1.246,4.17,10.492,5.621,13.937
		c0.86,2.039,1.518,2.357,1.993,2.471c0.341,0.067,0.681,0.09,0.952,0.09c0.182,0,0.296,0.022,0.296,0.181
		c0,0.181-0.204,0.226-1.044,0.226c-0.815,0-2.47,0-4.283-0.045c-0.408-0.022-0.679-0.022-0.679-0.181
		c0-0.136,0.09-0.181,0.317-0.205c0.158-0.045,0.317-0.249,0.204-0.521l-1.814-4.804c-0.045-0.113-0.112-0.159-0.226-0.159H99.291z
		 M103.914,53.854c0.114,0,0.138-0.067,0.114-0.135l-2.04-5.598c-0.021-0.091-0.045-0.204-0.113-0.204
		c-0.067,0-0.112,0.113-0.136,0.204l-2.085,5.575c-0.022,0.091,0,0.159,0.09,0.159H103.914z"/>
	<path fill="#FFFFFF" d="M114.701,50.342c0-3.444,0-4.079-0.046-4.804c-0.045-0.771-0.227-1.134-0.975-1.292
		c-0.181-0.045-0.566-0.069-0.884-0.069c-0.25,0-0.385-0.045-0.385-0.204c0-0.159,0.158-0.204,0.499-0.204
		c1.199,0,2.627,0.068,3.104,0.068c0.771,0,2.493-0.068,3.195-0.068c1.428,0,2.946,0.136,4.17,0.975
		c0.634,0.431,1.542,1.587,1.542,3.105c0,1.676-0.702,3.218-2.991,5.076c2.017,2.538,3.579,4.555,4.917,5.96
		c1.27,1.314,2.198,1.473,2.538,1.541c0.249,0.045,0.453,0.069,0.634,0.069c0.183,0,0.272,0.067,0.272,0.181
		c0,0.181-0.158,0.226-0.431,0.226h-2.152c-1.27,0-1.836-0.113-2.425-0.431c-0.975-0.521-1.836-1.586-3.104-3.331
		c-0.908-1.247-1.949-2.788-2.244-3.127c-0.113-0.136-0.249-0.159-0.408-0.159l-1.971-0.045c-0.114,0-0.181,0.045-0.181,0.181v0.318
		c0,2.107,0,3.897,0.112,4.849c0.068,0.658,0.204,1.156,0.883,1.248c0.341,0.045,0.839,0.09,1.111,0.09
		c0.181,0,0.272,0.067,0.272,0.181c0,0.159-0.158,0.226-0.453,0.226c-1.315,0-2.992-0.067-3.332-0.067
		c-0.432,0-1.859,0.067-2.764,0.067c-0.295,0-0.453-0.067-0.453-0.226c0-0.114,0.089-0.181,0.361-0.181
		c0.341,0,0.611-0.045,0.817-0.09c0.451-0.091,0.565-0.589,0.655-1.248c0.114-0.951,0.114-2.742,0.114-4.827V50.342z
		 M117.376,52.132c0,0.25,0.044,0.34,0.202,0.408c0.477,0.159,1.157,0.227,1.724,0.227c0.906,0,1.201-0.091,1.608-0.385
		c0.68-0.499,1.338-1.541,1.338-3.399c0-3.218-2.132-4.147-3.468-4.147c-0.568,0-0.975,0.023-1.202,0.091
		c-0.158,0.045-0.202,0.136-0.202,0.317V52.132z"/>
	<path fill="#FFFFFF" d="M132.673,11.009c2.491-2.524,1.498-6.115,3.416-8.964c0.309-0.278,1.222-0.821,1.794-0.496
		c0.01-0.174,0.014-0.912,0.019-1.548H0c0.008,0.678,0.015,1.613,0.026,1.812c0.571-0.326,1.487,0.213,1.796,0.491
		c1.926,2.843,0.946,6.437,3.443,8.954c1.104,1.184,2.048,2.537,2.463,4.057h122.427C130.524,13.693,131.516,12.259,132.673,11.009z
		"/>
</g>
</svg>
